<svg xmlns="http://www.w3.org/2000/svg" xmlns:xlink="http://www.w3.org/1999/xlink" width="50" height="50" viewBox="0 0 50 50" fill="none"><defs><rect id="path_0" x="0" y="0" width="50" height="50" /></defs><g opacity="1" transform="translate(0 0)  rotate(0 25 25)"><mask id="bg-mask-0" fill="white"><use xlink:href="#path_0"></use></mask><g mask="url(#bg-mask-0)" ><g opacity="1" transform="translate(1.9999999999999911 5.09502843128837)  rotate(0 22.896476658155088 20.154971568711638)"><path id="矩形备份-57" fill-rule="evenodd" style="fill:#F0620A" transform="translate(0 8.945852561689506)  rotate(0 12.304238847495824 4.662140988794525)" opacity="1" d="M4.21,7.5C4.84,8.63 6.02,9.32 7.3,9.32L24.61,9.32L20.4,1.82C19.77,0.7 18.59,0 17.31,0L0,0L4.21,7.5Z " /><path id="矩形备份-58" fill-rule="evenodd" style="fill:#1D4F91" transform="translate(11.352591294385025 15.508523196093751)  rotate(-118.96498200359781 20.46461141076501 4.646448372617889)" opacity="1" d="M7.32,0.03C6.05,0.03 4.88,0.72 4.24,1.83L0,9.29L33.61,9.26C34.88,9.26 36.05,8.58 36.69,7.46L40.93,0L7.32,0.03Z " /><path id="矩形备份-59" fill-rule="evenodd" style="fill:#F0620A" transform="translate(8.89463049216566 30.602249352707414)  rotate(0 13.934921104392858 4.662140988794529)" opacity="1" d="M4.13,7.48C4.76,8.62 5.94,9.32 7.23,9.32L27.87,9.32L23.64,1.82C23.01,0.69 21.83,0 20.55,0L0,0L4.13,7.48Z " /><path id="矩形备份-60" fill-rule="evenodd" style="fill:#1D4F91" transform="translate(11.266531986391925 16.46543477160235)  rotate(-90 5.336778295299393 8.121148789112135)" opacity="1" d="M0,8.67C0,10.05 0.77,11.31 1.99,11.91L10.67,16.24L10.67,7.57C10.67,6.19 9.9,4.93 8.68,4.33L0,0L0,8.67Z " /></g></g></g></svg>